<svg xmlns="http://www.w3.org/2000/svg" viewBox="0 0 220 320" role="img" aria-label="Chile amarillo">
  <defs>
    <linearGradient id="yBody" x1="0" x2="1">
      <stop offset="0" stop-color="#ffe04d"/>
      <stop offset="1" stop-color="#f39b00"/>
    </linearGradient>
  </defs>
  <ellipse cx="110" cy="294" rx="74" ry="13" fill="#d8d8d8"/>
  <path d="M116 18c24 2 34 28 22 39-7 7-20-3-18-12-8 19-23 24-35 23 11-13 22-31 31-50z" fill="#5a9a1e" stroke="#2b5f0e" stroke-width="4"/>
  <path d="M110 64c48 0 82 40 82 94 0 73-52 130-82 130S28 231 28 158c0-54 34-94 82-94z" fill="url(#yBody)" stroke="#8f5e00" stroke-width="5"/>
  <path d="M109 80c-26 0-44 21-44 52 0 24 11 51 29 74" fill="none" stroke="#fff2a9" stroke-width="9" stroke-linecap="round" opacity=".7"/>
  <path d="M145 110c11 8 16 24 13 43" fill="none" stroke="#d27f00" stroke-width="8" stroke-linecap="round" opacity=".35"/>
  <circle cx="96" cy="120" r="12" fill="#fff" opacity=".55"/>
  <circle cx="122" cy="132" r="9" fill="#fff" opacity=".38"/>
</svg>
